<svg xmlns="http://www.w3.org/2000/svg" width="32.528" height="32.528" viewBox="0 0 32.528 32.528"><defs><style>.a{fill:#3a4747;}</style></defs><path class="a" d="M8.825,27.5a2.515,2.515,0,1,1-2.47,2.523A2.493,2.493,0,0,1,8.825,27.5Zm18.283,0a2.515,2.515,0,1,1-2.47,2.523A2.493,2.493,0,0,1,27.108,27.5ZM1.266,0l.166.014,3.876.6A1.243,1.243,0,0,1,6.315,1.739l.309,3.718a1,1,0,0,0,.991.931H29.562A2.744,2.744,0,0,1,31.854,7.5a3.589,3.589,0,0,1,.618,2.853L30.927,21.241a4.176,4.176,0,0,1-4.112,3.635H9.086a4.177,4.177,0,0,1-4.128-3.882L3.463,2.9,1.009,2.469A1.246,1.246,0,0,1,1.431.014Zm22.95,12.527h-4.5a1.245,1.245,0,0,0,0,2.49h4.5a1.245,1.245,0,0,0,0-2.49Z"/></svg>