<svg xmlns="http://www.w3.org/2000/svg" width="100.095" height="32.474" viewBox="0 0 100.095 32.474"><defs><style>.a{fill:#3a4747;}</style></defs><g transform="translate(0 0)"><path class="a" d="M226.354,920.4h0l-7.788,21.575-.923-4.648h0l-2.75-14.106s-.333-2.826-3.873-2.826H198.152l-.152.533h0a30.544,30.544,0,0,1,8.544,3.587l7.1,27.26h8.511l12.992-31.37h-8.792Z" transform="translate(-198 -919.843)"/><path class="a" d="M943.5,920.5l-5.1,31.37h8.168l5.1-31.37Z" transform="translate(-903.177 -919.939)"/><path class="a" d="M1713.716,920.5h-6.565a3.759,3.759,0,0,0-3.773,2.336L1691.2,951.87h8.516l1.7-4.657H1711.8l.956,4.657h7.5Zm-9.948,20.276,4.291-11.741,2.412,11.741Z" transform="translate(-1620.163 -919.939)"/><path class="a" d="M1704.7,1079.1Z" transform="translate(-1633.021 -1070.993)"/><path class="a" d="M1227.8,917.972c0-3.549,7.954-3.092,11.451-1.166l1.166-6.736a23.537,23.537,0,0,0-7.345-1.37c-4.053,0-13.677,1.77-13.677,10.385,0,8.107,11.3,8.206,11.3,12.464s-10.133,3.492-13.478.809L1216,939.4a22.921,22.921,0,0,0,9.22,1.77c5.576,0,13.982-2.888,13.982-10.742C1239.2,922.278,1227.8,921.516,1227.8,917.972Z" transform="translate(-1167.57 -908.7)"/></g></svg>